<?xml version="1.0" encoding="utf-8"?>
<!-- Generator: Adobe Illustrator 23.0.6, SVG Export Plug-In . SVG Version: 6.00 Build 0)  -->
<svg version="1.0" id="Layer_1" xmlns="http://www.w3.org/2000/svg" xmlns:xlink="http://www.w3.org/1999/xlink" x="0px" y="0px"
	 width="105.33px" height="105.33px" viewBox="0 0 105.33 105.33" enable-background="new 0 0 105.33 105.33" xml:space="preserve">
<g id="XMLID_2_">
	<path id="XMLID_4_" fill="#101111" d="M0,105.33h105.33V0H0V105.33z M98.92,6.41V18.2l-92.52,13V6.41H98.92z M83.06,32.16
		c-0.56-0.48-1.48-0.63-2.75-0.45l-6.28,0.88c-1.28,0.18-2.19,0.59-2.75,1.22c-0.56,0.64-0.84,1.59-0.84,2.87v5.74l18.3,7.65v8.07
		c0,3.15-0.71,5.53-2.12,7.14c-1.42,1.61-3.7,2.64-6.85,3.09l-5.2,0.73c-3.15,0.44-5.43,0.06-6.85-1.16
		c-1.42-1.21-2.12-3.4-2.12-6.55v-1.97l4.84-0.68v2.51c0,1.28,0.28,2.15,0.84,2.63c0.56,0.48,1.47,0.63,2.75,0.45l6.28-0.88
		c1.27-0.18,2.19-0.59,2.75-1.22c0.56-0.64,0.84-1.59,0.84-2.87v-5.74l-18.3-7.65v-8.07c0-3.15,0.71-5.53,2.12-7.15
		c1.41-1.61,3.7-2.64,6.85-3.09l5.2-0.73c3.15-0.44,5.43-0.06,6.85,1.16c1.41,1.22,2.12,3.4,2.12,6.55v1.97l-4.84,0.68V34.8
		C83.9,33.52,83.62,32.64,83.06,32.16 M40.07,37.37v-4.84l23.14-3.25v4.84l-9.15,1.29V72l-4.84,0.68v-36.6L40.07,37.37z
		 M28.05,70.81c1.28-0.18,2.19-0.59,2.75-1.22c0.56-0.64,0.84-1.59,0.84-2.87V38.55l-18.3,2.57v-4.85l23.14-3.25V65.5
		c0,3.15-0.71,5.53-2.12,7.15c-1.41,1.62-3.7,2.64-6.85,3.09l-14.17,1.99V66.78l4.84-0.68v6.1L28.05,70.81z M6.41,98.93V84.93
		l92.52-13v27H6.41z"/>
</g>
</svg>
